<svg width="452" height="73" viewBox="0 0 452 73" fill="none" xmlns="http://www.w3.org/2000/svg">
  <path
    d="M0.131392 72V1.45454H28.3771C33.567 1.45454 37.8957 2.22384 41.3633 3.76243C44.8308 5.30102 47.4373 7.43667 49.1825 10.1694C50.9278 12.8791 51.8004 16.0022 51.8004 19.5387C51.8004 22.2944 51.2493 24.7171 50.147 26.8068C49.0447 28.8736 47.5291 30.5729 45.6001 31.9048C43.6941 33.2138 41.5125 34.1438 39.0554 34.695V35.3839C41.7422 35.4987 44.2567 36.2565 46.5991 37.6573C48.9644 39.0581 50.8819 41.0215 52.3516 43.5476C53.8213 46.0507 54.5561 49.036 54.5561 52.5036C54.5561 56.2467 53.6261 59.5879 51.766 62.5273C49.9289 65.4438 47.2076 67.7517 43.6023 69.451C39.9969 71.1503 35.5534 72 30.2717 72H0.131392ZM15.0465 59.8061H27.206C31.3625 59.8061 34.3937 59.0138 36.2997 57.4293C38.2057 55.8219 39.1587 53.6862 39.1587 51.0224C39.1587 49.0704 38.688 47.3481 37.7465 45.8555C36.8049 44.3628 35.4615 43.1916 33.7163 42.342C31.994 41.4923 29.9387 41.0675 27.5504 41.0675H15.0465V59.8061ZM15.0465 30.9748H26.1037C28.1475 30.9748 29.9616 30.6188 31.5462 29.907C33.1536 29.1721 34.4167 28.1387 35.3352 26.8068C36.2768 25.4749 36.7475 23.8789 36.7475 22.0188C36.7475 19.4698 35.8404 17.4145 34.0263 15.853C32.2351 14.2914 29.6861 13.5106 26.3793 13.5106H15.0465V30.9748ZM64.2613 72V1.45454H111.797V13.7518H79.1764V30.5614H109.351V42.8587H79.1764V59.7028H111.935V72H64.2613ZM161.924 21.7433C161.649 18.9646 160.466 16.806 158.376 15.2674C156.287 13.7288 153.451 12.9595 149.868 12.9595C147.434 12.9595 145.379 13.304 143.702 13.9929C142.026 14.6589 140.74 15.5889 139.844 16.783C138.972 17.9772 138.536 19.332 138.536 20.8477C138.49 22.1107 138.754 23.2129 139.328 24.1545C139.925 25.096 140.74 25.9112 141.773 26.6001C142.807 27.2661 144.001 27.8517 145.356 28.3569C146.711 28.8391 148.157 29.2525 149.696 29.5969L156.034 31.1126C159.111 31.8015 161.936 32.7201 164.508 33.8683C167.08 35.0165 169.307 36.4287 171.19 38.1051C173.073 39.7815 174.532 41.7564 175.565 44.0298C176.621 46.3033 177.161 48.9097 177.184 51.8491C177.161 56.1663 176.059 59.9094 173.877 63.0785C171.719 66.2246 168.595 68.6702 164.508 70.4155C160.443 72.1378 155.54 72.9989 149.799 72.9989C144.104 72.9989 139.144 72.1263 134.919 70.381C130.716 68.6358 127.432 66.0523 125.067 62.6307C122.725 59.1861 121.496 54.9263 121.381 49.8512H135.814C135.975 52.2165 136.652 54.1914 137.847 55.7759C139.064 57.3375 140.683 58.5201 142.703 59.3239C144.747 60.1046 147.055 60.495 149.627 60.495C152.153 60.495 154.346 60.1276 156.206 59.3928C158.089 58.6579 159.548 57.636 160.581 56.3271C161.614 55.0181 162.131 53.514 162.131 51.8146C162.131 50.2301 161.66 48.8982 160.719 47.8189C159.8 46.7396 158.445 45.821 156.654 45.0632C154.886 44.3054 152.716 43.6165 150.144 42.9964L142.462 41.0675C136.515 39.6207 131.819 37.3588 128.374 34.2816C124.929 31.2044 123.219 27.0594 123.241 21.8466C123.219 17.5753 124.355 13.8436 126.652 10.6516C128.971 7.45964 132.152 4.96804 136.193 3.17685C140.235 1.38565 144.828 0.490054 149.972 0.490054C155.207 0.490054 159.777 1.38565 163.681 3.17685C167.608 4.96804 170.662 7.45964 172.844 10.6516C175.025 13.8436 176.151 17.5408 176.219 21.7433H161.924ZM184.53 13.7518V1.45454H242.468V13.7518H220.87V72H206.127V13.7518H184.53Z"
    fill="#F4BF00" />
  <path
    d="M252.009 72V1.45454H298.718V13.7518H266.924V30.5614H295.618V42.8587H266.924V72H252.009ZM308.751 72V1.45454H323.666V59.7028H353.909V72H308.751ZM378.702 1.45454V72H363.787V1.45454H378.702ZM404.958 1.45454L419.184 25.4979H419.736L434.031 1.45454H450.875L429.346 36.7273L451.357 72H434.203L419.736 47.9222H419.184L404.717 72H387.632L409.712 36.7273L388.045 1.45454H404.958Z"
    fill="white" />
</svg>